<svg xmlns="http://www.w3.org/2000/svg" fill="none" viewBox="0 0 300 313">
  <path fill="url(#a)" fill-rule="evenodd" d="M125.002 22c-8.837 0-16 7.1634-16 16v4H89.0018h19.9992c0 11.0454-8.954 19.9996-19.9992 20H209.002v-.001c-11.046 0-20-8.9538-20-19.999v-4c0-8.8366-7.164-16-16-16h-48Z" clip-rule="evenodd"/>
  <path fill="url(#b)" fill-rule="evenodd" d="M169.002 278c11.046 0 20-8.954 20-20h20-19.999c0-11.045 8.953-20 19.999-20H89.0018v.001c11.0452 0 19.9992 8.954 20.0002 19.999 0 11.046 8.954 20 20 20h40Z" clip-rule="evenodd"/>
  <g filter="url(#c)">
    <rect width="156" height="180" x="71.0018" y="60" fill="url(#d)" rx="30"/>
    <rect width="140" height="166" x="79.0018" y="67" fill="#000" rx="30"/>
    <rect width="110" height="110" x="94.0019" y="95" fill="#1D2126" rx="3"/>
    <rect width="110" height="110" x="94.0019" y="95" fill="url(#e)" rx="3"/>
    <path fill="gray" d="m148.331 130-9.863 14.816v9.392h-6.045v-9.392L123.002 130h6.794l5.991 9.54 6.04-9.54h6.504Z"/>
    <path fill="#CB171E" d="M158.483 148.882h-10.942l-2.226 5.383h-4.845l10.246-24.208h4.956l9.83 24.208h-5.178l-1.841-5.383Zm-1.818-4.834-3.354-8.883-3.743 8.883h7.097Z"/>
    <path fill="gray" d="M132.423 156.923v23.727h5.081v-16.367l5.318 11.001h4l5.499-11.387v16.748h4.875v-23.722h-6.656l-5.905 10.73-5.625-10.73h-6.587Zm45.579 18.571h-12.5v-18.576h-5.177v23.624h17.677v-5.048Z"/>
    <path stroke="silver" stroke-width=".932683" d="M94.0018 95v35.351H204.002V95H94.0018Zm4.0104 2.1838c.4861 0 .9523.1936 1.2961.5381.3437.3446.5369.8119.537 1.2992 0 .2413-.0473.4803-.1394.7033-.0921.223-.2271.4256-.3974.5966-.1702.17-.3723.306-.5947.398-.2224.093-.4608.14-.7016.14-.2408 0-.4793-.047-.7017-.14-.2225-.092-.4247-.227-.5949-.398-.1703-.171-.3054-.3735-.3975-.5965-.0921-.223-.1395-.4621-.1394-.7034 0-.2414.0475-.4803.1396-.7033.0922-.2229.2273-.4254.3975-.596.1703-.1707.3724-.306.5948-.3983.2225-.0923.4609-.1397.7016-.1397Zm101.4978 0c.241 0 .479.0474.701.1397.223.0923.425.2276.595.3983.171.1706.306.3731.398.596.092.223.139.4619.139.7033.001.2413-.047.4804-.139.7034-.092.223-.227.4255-.397.5965-.171.171-.373.306-.595.398-.223.093-.461.14-.702.14-.241 0-.479-.047-.702-.14-.222-.092-.424-.228-.594-.398-.171-.171-.306-.3736-.398-.5966-.092-.223-.139-.462-.139-.7033 0-.4873.193-.9546.537-1.2992.344-.3445.81-.5381 1.296-.5381ZM98.0122 124.657c.2408 0 .4792.048.7016.14.2224.092.4245.228.5947.398.1703.171.3053.374.3974.597.0921.223.1394.462.1394.703-.0001.487-.1933.955-.537 1.299-.3438.345-.81.538-1.2961.538-.2408 0-.4792-.047-.7016-.139-.2225-.093-.4246-.228-.5949-.399-.1702-.17-.3053-.373-.3975-.596-.0921-.223-.1395-.462-.1395-.703-.0001-.242.0473-.481.1394-.704.0921-.223.2272-.425.3975-.596.1702-.171.3724-.306.5949-.398.2224-.093.4609-.14.7017-.14Zm101.4978 0c.241 0 .479.048.702.14.222.092.424.228.595.398.17.171.305.374.397.597.092.223.14.462.139.703 0 .241-.047.48-.139.703-.092.223-.227.426-.398.596-.17.171-.372.306-.595.399-.222.092-.46.139-.701.139-.486 0-.952-.193-1.296-.538-.344-.344-.537-.812-.537-1.299 0-.241.047-.48.139-.703.092-.223.227-.426.398-.597.17-.17.372-.306.594-.398.223-.093.461-.14.702-.14Z"/>
    <path stroke="silver" stroke-width=".932653" d="M123.196 104.302v-1.692c0-.286.113-.56.314-.762.202-.202.475-.315.76-.315.285 0 .558.113.76.315.201.202.314.476.314.762v1.692m-5.765 0v-1.692c0-.596.481-1.078 1.075-1.078.141 0 .28.027.411.081.13.054.249.133.349.232.099.1.179.219.233.349.054.131.082.271.082.412v1.693m-5.77.004v-1.692c0-.286.113-.56.315-.762.201-.202.475-.315.76-.315.285 0 .558.113.759.315.202.202.315.476.315.762v1.692m-5.769 0v-1.692c0-.142.028-.282.082-.413.054-.13.133-.249.233-.349.099-.1.218-.18.348-.234.131-.054.27-.082.412-.082.141 0 .281.028.411.082.13.054.249.134.349.234.1.1.179.219.233.349.054.131.082.271.082.413v1.692m-5.771 0v-1.692c0-.286.114-.56.315-.762.202-.202.475-.316.76-.316.285 0 .559.114.76.316.202.202.315.476.315.762v1.692m-5.766 0v-1.692c0-.286.114-.56.315-.762.202-.202.475-.316.76-.316.285 0 .559.114.76.316.202.202.315.476.315.762v1.692m18.093 16.156v1.896c0 .285-.113.559-.314.761-.202.202-.475.316-.761.316-.285 0-.558-.114-.76-.316-.201-.202-.314-.476-.314-.761v-1.896m-1.467 0v1.896c0 .285-.114.559-.315.761-.202.202-.475.316-.76.316-.285 0-.558-.114-.76-.316-.201-.202-.314-.476-.314-.761v-1.896m-1.472 0v1.896c0 .285-.113.559-.315.761-.201.202-.474.316-.759.316-.285 0-.559-.114-.76-.316-.202-.202-.315-.476-.315-.761v-1.896m-1.471 0v1.896c0 .285-.114.559-.315.761-.202.202-.475.316-.76.316-.285 0-.558-.114-.76-.316-.201-.202-.314-.476-.314-.761v-1.896m-1.471 0v1.896c0 .285-.113.559-.315.761-.201.202-.475.316-.76.316-.285 0-.558-.114-.76-.316-.201-.202-.315-.476-.315-.761v-1.896m-1.466.106v1.794c0 .286-.113.56-.315.762-.201.202-.475.316-.76.316-.285 0-.558-.114-.76-.316-.201-.202-.315-.476-.315-.762v-1.794"/>
    <path stroke="silver" stroke-width=".932653" d="M125.887 104.302h-21.325c-.051 0-.102.01-.15.03-.048.02-.091.049-.127.085-.037.037-.066.08-.085.128-.02.048-.03.099-.03.151v15.375c0 .214.173.393.391.393h21.322c.214 0 .392-.175.392-.392v-15.377c0-.052-.009-.102-.029-.15-.019-.047-.048-.091-.084-.127-.036-.037-.078-.066-.126-.085-.047-.02-.097-.03-.149-.031Z"/>
    <path fill="silver" fill-rule="evenodd" stroke="silver" stroke-linecap="round" stroke-linejoin="round" stroke-width=".793519" d="M110.618 113.273h1.16v3.139h6.97v-3.139h1.16l-1.168-1.174v-2.054h-.727v1.328l-2.752-2.758-4.643 4.658Z" clip-rule="evenodd"/>
    <path stroke="silver" stroke-linecap="round" stroke-linejoin="round" stroke-width=".932653" d="M104.088 119.534h-6.3914v-1.575h4.7924v-1.576h-4.7924v-1.572h4.7924v-1.575h-4.7924v-1.575h4.7924v-1.572h-4.7924v-4.853"/>
    <path fill="silver" fill-rule="evenodd" d="M130.953 112.183h7.84v3.104h-1.481v-1.852h-3.904v3.511h3.285v1.244h-3.285v3.72h3.906v-1.852h1.48v3.097h-7.84v-1.245h1.039v-8.475h-1.039l-.001-1.252Zm14.909 2.981c0-.424-.077-.743-.231-.955-.154-.212-.325-.373-.512-.485-.183-.115-.386-.203-.607-.261-.222-.062-.443-.093-.665-.093-.365 0-.685.043-.959.13-.275.082-.504.196-.686.34-.179.145-.313.314-.405.506-.091.193-.137.396-.137.609 0 .318.056.576.166.775.116.193.26.349.433.47.174.115.364.207.57.275.212.067.414.135.607.203l1.458.477c.439.14.824.299 1.155.478.338.178.619.391.845.637.227.24.398.521.512.84.121.317.181.686.181 1.106 0 .454-.094.874-.281 1.26-.183.386-.44.721-.773 1.005-.332.286-.729.51-1.191.674-.457.159-.96.239-1.509.239-.563 0-1.044-.066-1.443-.196-.4-.125-.737-.294-1.012-.506-.269-.218-.486-.464-.65-.738-.163-.275-.291-.557-.382-.847h-.549v-1.245h1.82c0 .535.055.914.165 1.136.116.222.275.408.477.557.202.145.443.256.722.334.28.072.588.108.924.108.327 0 .621-.039.881-.116.265-.077.488-.188.671-.333.188-.15.33-.328.427-.535.101-.212.151-.451.151-.717 0-.294-.062-.542-.188-.745-.12-.208-.276-.384-.468-.529-.193-.144-.405-.263-.636-.355-.226-.091-.445-.171-.657-.239l-1.582-.448c-.346-.106-.664-.241-.953-.405-.283-.164-.529-.365-.735-.601-.203-.237-.359-.512-.47-.825-.11-.319-.166-.685-.166-1.101 0-.419.082-.812.245-1.179.164-.367.405-.687.722-.962.318-.275.706-.49 1.163-.644.462-.16.989-.24 1.581-.24.39 0 .749.046 1.076.138.332.092.631.222.895.391.27.164.506.364.708.601.207.232.38.487.52.767h.541v1.245l-1.769-.001Zm3.141-2.981h4.425c.491 0 .942.065 1.351.196.414.124.77.312 1.068.564.303.246.537.554.701.926.168.372.252.799.252 1.281 0 .4-.082.779-.245 1.136-.164.353-.395.661-.693.927-.299.265-.658.475-1.077.63-.413.154-.875.231-1.386.231h-1.942v3.836h1.097v1.245h-3.551v-1.245h1.039v-8.475h-1.039v-1.252Zm2.454 1.251v3.454h1.971c.275 0 .525-.037.751-.11.232-.077.429-.187.592-.332.169-.145.299-.326.391-.542.096-.218.144-.469.144-.754 0-.54-.164-.96-.491-1.258-.328-.305-.85-.457-1.568-.457l-1.79-.001Zm14.419-1.251h3.552v1.244h-1.039v8.483h1.039v1.245h-3.552v-1.245h1.097v-3.944h-6.332v3.944h1.097v1.245h-3.551v-1.245h1.039v-8.483h-1.039v-1.244h3.551v1.244h-1.097v3.323h6.332v-3.323h-1.097v-1.244Zm5.213 7.223c.005-.593.099-1.134.281-1.621.188-.487.448-.905.78-1.253.332-.352.727-.622 1.184-.81.458-.188.961-.282 1.509-.282.554 0 1.059.094 1.516.282.462.188.857.456 1.184.803.327.343.583.758.766 1.245.183.487.275 1.028.275 1.622 0 .583-.092 1.121-.275 1.613-.183.488-.439.908-.766 1.26s-.722.627-1.184.824c-.457.193-.962.29-1.516.29-.563 0-1.073-.097-1.53-.29-.458-.193-.85-.463-1.177-.81-.327-.352-.582-.772-.766-1.26-.183-.487-.276-1.025-.281-1.613Zm1.422 0c0 .429.061.818.181 1.165.124.347.293.644.505.89.217.241.464.43.743.565.285.13.586.195.904.195.331 0 .639-.065.924-.195.289-.131.539-.317.75-.558.212-.245.378-.542.499-.889.12-.348.18-.739.18-1.173 0-.454-.06-.857-.18-1.209-.121-.352-.287-.646-.499-.883-.207-.236-.455-.415-.744-.536-.288-.12-.599-.181-.931-.181-.317 0-.618.061-.903.181-.279.121-.527.3-.743.536-.212.237-.38.531-.505.883-.12.352-.181.755-.181 1.209Zm7.516-3.749h2.383v.876h.014c.164-.14.335-.271.512-.391.183-.125.374-.234.571-.326.198-.092.402-.164.614-.217.217-.053.44-.08.671-.08.54 0 1.005.101 1.394.304.39.198.691.51.902.934.183-.164.376-.321.578-.471.202-.154.411-.287.629-.397.221-.112.452-.201.693-.268.24-.068.49-.102.75-.102.404 0 .767.056 1.09.167.323.111.598.28.824.506.226.227.396.519.512.876.12.352.181.77.181 1.252v3.59h1.039v1.245h-3.495v-1.245h1.055v-3.423c0-.574-.145-1.009-.433-1.302-.289-.299-.706-.449-1.25-.449-.322 0-.652.077-.989.231-.336.154-.625.35-.866.586v4.357h1.033v1.245h-3.488v-1.245h1.054v-3.423c0-.574-.147-1.009-.44-1.302-.289-.3-.705-.449-1.249-.449-.313 0-.629.074-.946.224-.318.149-.619.335-.903.557v4.393h1.054v1.245h-3.494v-1.245h1.04v-5.008h-1.04v-1.245Zm16.086 3.923c0 .212.014.407.043.586.034.174.08.34.138.499.177.483.461.847.851 1.093.395.241.84.362 1.336.362.39 0 .768-.053 1.133-.159.371-.112.759-.283 1.163-.514l.542.919c-.491.338-.984.589-1.481.753-.496.164-1.01.246-1.544.246-.506 0-.975-.085-1.409-.253-.428-.17-.799-.421-1.111-.754-.309-.332-.552-.747-.73-1.244-.173-.497-.259-1.076-.259-1.737 0-.535.074-1.04.223-1.513.15-.477.371-.892.665-1.245.298-.357.666-.639 1.104-.846.438-.208.948-.312 1.531-.312.563 0 1.032.087 1.408.261.38.169.688.396.924.68.241.28.421.601.541.963.126.362.212.731.261 1.107.023.184.038.37.043.558.009.188.014.371.014.55h-5.386Zm2.101-2.989c-.313 0-.587.046-.823.137-.231.087-.428.215-.592.383-.164.164-.296.367-.397.609-.096.241-.169.511-.217.81h3.877c-.019-.28-.064-.538-.136-.775-.068-.236-.174-.441-.319-.614-.144-.175-.329-.31-.555-.405-.227-.097-.506-.145-.838-.145Z" clip-rule="evenodd"/>
    <path fill="silver" d="m134.877 109.167 2.021-6.037v6.037h.866v-7.203h-1.27l-2.09 6.274-2.13-6.274h-1.271v7.203h.867v-6.037l2.04 6.037h.967Zm8.87-.476c-.089.02-.129.02-.177.02-.286 0-.444-.149-.444-.406v-3.044c0-.918-.671-1.412-1.942-1.412-.76 0-1.36.217-1.715.603-.237.267-.336.563-.355 1.076h.828c.069-.632.443-.918 1.213-.918.749 0 1.153.276 1.153.771v.217c-.01.355-.187.484-.858.573-1.163.148-1.341.188-1.656.316-.602.257-.907.712-.907 1.384 0 .938.651 1.531 1.695 1.531.652 0 1.173-.227 1.755-.761.059.534.316.761.847.761.178 0 .287-.019.563-.088v-.623Zm-1.439-1.147c0 .278-.079.446-.326.673-.336.306-.739.464-1.222.464-.641 0-1.016-.307-1.016-.83 0-.544.355-.82 1.243-.949.877-.119 1.044-.158 1.321-.287v.929Zm6.524-5.576h-.817v2.678c-.345-.523-.897-.8-1.588-.8-1.341 0-2.218 1.077-2.218 2.726 0 1.75.847 2.828 2.247 2.828.71 0 1.204-.267 1.647-.91v.682h.729v-7.204Zm-2.267 2.648c.887 0 1.45.781 1.45 2.026 0 1.196-.572 1.986-1.44 1.986-.907 0-1.508-.8-1.508-2.005 0-1.206.601-2.007 1.498-2.007Zm7.931 2.245c0-.791-.06-1.265-.207-1.65-.335-.85-1.124-1.363-2.09-1.363-1.439 0-2.366 1.096-2.366 2.806 0 1.709.887 2.747 2.346 2.747 1.183 0 2.001-.673 2.208-1.799h-.827c-.228.682-.691 1.038-1.351 1.038-.248.005-.492-.054-.71-.171-.218-.118-.402-.291-.533-.502-.197-.296-.266-.593-.275-1.106h3.805Zm-3.786-.672c.069-.958.651-1.581 1.478-1.581.839 0 1.421.653 1.421 1.581h-2.899Zm9.495-2.195h-.857v-.81c0-.345.187-.523.571-.523.069 0 .099 0 .286.009v-.681c-.151-.035-.307-.052-.463-.05-.759 0-1.212.435-1.212 1.177v.878h-.691v.673h.69v4.506h.819v-4.506h.857v-.673Zm2.776-.149c-1.459 0-2.327 1.037-2.327 2.777 0 1.749.868 2.777 2.337 2.777 1.459 0 2.336-1.038 2.336-2.738 0-1.798-.846-2.816-2.346-2.816Zm.009.761c.927 0 1.479.761 1.479 2.045 0 1.226-.571 1.987-1.478 1.987-.917 0-1.479-.761-1.479-2.017 0-1.256.561-2.015 1.478-2.015Zm3.475-.612v5.179h.828v-2.689c.009-1.245.521-1.798 1.656-1.768v-.84c-.105-.018-.21-.028-.316-.03-.532 0-.936.316-1.409 1.087v-.939h-.759Z"/>
    <rect width="110" height="110" x="94.0019" y="95" fill="url(#f)" fill-opacity=".2" rx="3"/>
  </g>
  <circle cx="180.888" cy="223" r="4" fill="#2E2F31"/>
  <circle cx="180.888" cy="223" r="2" fill="#fff" fill-opacity=".1"/>
  <rect width="76" height="10" x="111.002" y="55" fill="#202020" rx="2"/>
  <rect width="76" height="10" x="111.002" y="235" fill="#000" rx="2"/>
  <ellipse cx="226.995" cy="103" fill="#404040" rx="2" ry="8"/>
  <path fill="#202020" d="M223.051 95h4v16h-4z"/>
  <ellipse cx="222.995" cy="103" fill="#202020" rx="2" ry="8"/>
  <rect width="4" height="40" x="224.998" y="130" fill="gray" rx="2"/>
  <defs>
    <linearGradient id="a" x1="145.502" x2="145.502" y1="22" y2="62" gradientUnits="userSpaceOnUse">
      <stop stop-color="#404040"/>
      <stop offset="1" stop-color="#202020"/>
    </linearGradient>
    <linearGradient id="b" x1="149.002" x2="149.002" y1="278" y2="238" gradientUnits="userSpaceOnUse">
      <stop/>
      <stop offset="1" stop-color="#202020"/>
    </linearGradient>
    <linearGradient id="d" x1="149.002" x2="149.002" y1="60" y2="240" gradientUnits="userSpaceOnUse">
      <stop stop-color="#404040"/>
      <stop offset=".46"/>
      <stop offset="1" stop-color="#202020"/>
    </linearGradient>
    <linearGradient id="e" x1="149.002" x2="149.002" y1="95" y2="205" gradientUnits="userSpaceOnUse">
      <stop/>
      <stop offset="1" stop-color="#1D2126"/>
    </linearGradient>
    <linearGradient id="f" x1="204" x2="73.5633" y1="95" y2="168.949" gradientUnits="userSpaceOnUse">
      <stop stop-color="#fff"/>
      <stop offset=".46875" stop-color="#fff" stop-opacity=".5"/>
      <stop offset=".46885" stop-color="#fff" stop-opacity="0"/>
    </linearGradient>
    <filter id="c" width="198" height="257" x="54.0018" y="56" color-interpolation-filters="sRGB" filterUnits="userSpaceOnUse">
      <feFlood flood-opacity="0" result="BackgroundImageFix"/>
      <feColorMatrix in="SourceAlpha" result="hardAlpha" values="0 0 0 0 0 0 0 0 0 0 0 0 0 0 0 0 0 0 127 0"/>
      <feOffset dy="3"/>
      <feGaussianBlur stdDeviation="3.5"/>
      <feColorMatrix values="0 0 0 0 0 0 0 0 0 0 0 0 0 0 0 0 0 0 0.24 0"/>
      <feBlend in2="BackgroundImageFix" result="effect1_dropShadow_1405_5607"/>
      <feColorMatrix in="SourceAlpha" result="hardAlpha" values="0 0 0 0 0 0 0 0 0 0 0 0 0 0 0 0 0 0 127 0"/>
      <feOffset dx="1" dy="13"/>
      <feGaussianBlur stdDeviation="6.5"/>
      <feColorMatrix values="0 0 0 0 0 0 0 0 0 0 0 0 0 0 0 0 0 0 0.21 0"/>
      <feBlend in2="effect1_dropShadow_1405_5607" result="effect2_dropShadow_1405_5607"/>
      <feColorMatrix in="SourceAlpha" result="hardAlpha" values="0 0 0 0 0 0 0 0 0 0 0 0 0 0 0 0 0 0 127 0"/>
      <feOffset dx="2" dy="29"/>
      <feGaussianBlur stdDeviation="8.5"/>
      <feColorMatrix values="0 0 0 0 0 0 0 0 0 0 0 0 0 0 0 0 0 0 0.12 0"/>
      <feBlend in2="effect2_dropShadow_1405_5607" result="effect3_dropShadow_1405_5607"/>
      <feColorMatrix in="SourceAlpha" result="hardAlpha" values="0 0 0 0 0 0 0 0 0 0 0 0 0 0 0 0 0 0 127 0"/>
      <feOffset dx="4" dy="52"/>
      <feGaussianBlur stdDeviation="10.5"/>
      <feColorMatrix values="0 0 0 0 0 0 0 0 0 0 0 0 0 0 0 0 0 0 0.04 0"/>
      <feBlend in2="effect3_dropShadow_1405_5607" result="effect4_dropShadow_1405_5607"/>
      <feBlend in="SourceGraphic" in2="effect4_dropShadow_1405_5607" result="shape"/>
    </filter>
  </defs>
</svg>
