<svg xmlns="http://www.w3.org/2000/svg" fill="none" viewBox="0 0 24 24">
  <path fill="#000" fill-rule="evenodd" d="m17.6.3-.6.6c0 .3-.3.4-1 .4-1 .1-1.5.5-1.8 1.2-.2.4-.3.5-.6.4h-1.1c-.6 0-1-.1-1-.3-.5-.5-1.7-.2-2.5.7-.4.5-1.1 1.5-1.1 1.7l.4.2c.4.1.4.1.2.6-.3.4-.4.5-1 .5-1.3 0-1.4 1-.2 1 .6.1.6.1.6.8 0 .6.6 2.4.9 2.4l.7.3c.6.5 1.8.8 2.3.7.3-.1.3 0 .3 1s0 1-.4 1c-.6 0-1.6.5-2.2 1L9 15l-1.4-.4a11 11 0 0 0-2-.5l-1.8-.3c-1-.2-1.2-.4-1.3-.7l-.2-2.6-.1-2.9c0-.6 0-.6.4-.8.5-.1.5-.2.6-.7 0-.6 0-.6-.5-.8C2 5 2 4.9 2.3 3.8c.3-1 .4-1.9 0-1.9-.2 0-.4.5-.4 1.2s-.2.4-.6-.8C.7.4 0 .1 0 1.7c0 1 .4 2.3.9 2.8l.4.5-.6.3c-.5.2-.6.2-.5.8 0 .5.1.6.6.7.6.2.6.3.7 4 .1 3.3 0 3.3 2 3.8.9.2 1.6.5 1.7.6l1.3.4c1.3.2 2 .4 1.8.6l-.2 1c-.4 1.6.4 3 2 3.8l.9.4v2.3h3.5l-.2-.7c-.3-1.4-.2-1.5.7-2a4 4 0 0 0 2.1-2.2l.2-1s.4.1 1 .6l1 .8 1.8 1 2 1.3c.4 0 .9-.3.9-.6 0-.2-1-1.2-2.2-2.4-2-2-2.5-2.5-1.7-2.1.6.3.8.2 1.2-.5.6-.9 2.7-5.4 2.7-5.8 0-.1-.2-.4-.5-.6l-4.4-2c-.2 0-.5.4-.7.8-.6 1-2.5 5.3-2.5 5.8s0 .4-.6.1l-1.4-.4-.8-.2v-1l-.2-1.1c0-.2 1.2-1.2 1.9-1.5.7-.4 2-3.1 2-4.3-.1-.7-.1-.8.4-1 .3 0 .6-.2.8-.4a2 2 0 0 0 0-1.7c-.1-.3 0-.4.5-.7.8-.5 1.2-1.1.7-1.6-.3-.4-1-.4-1.6 0ZM12 5.1v1.3c0 2-.8 2.8-2 2.3-.8-.3-1-.6-1-1.5 0-1.3.7-2.1 1.3-1.5.3.3.3 1.6 0 2.2-.2.4 0 .7.4.6.5-.2.8-1 .8-2v-1h-1.3l-1-.1-.5.7a4 4 0 0 0-.3 2.8c.2.7.4.8 1 .5.3-.1.3-.1 0 .3-.3.5-.3.5 0 .7 1.3 1 3 .9 4.5-.3l.5-.4-.8-1.5A43.8 43.8 0 0 1 12 5Zm-10.7.7.3.2c.1 0 .2 0 .2.2 0 .1-.1.2-.2.1l-.2.1.6.2c.5 0 .6 0 .6-.4s-.5-.7-1-.7c-.4 0-.5 0-.3.3Zm5.6.9c-.2.2 0 .4.6.4.4 0 .6-.1.6-.3 0-.1-.2-.2-.6-.2H7ZM18.5 9c-.7 1.3-2.2 4.8-2.2 5 0 .2.3.4.8.6 1 .4 1 .4.8.1 0 0-.2-.2-.3-.1-.2 0-.2 0 0-.4l.2-.6-.2.4c-.2.5-.6.6-.8.3 0-.2.3-1.1.5-1.1v.2c-.1.2 0 .1.7-.1l.6-.2-.4-.1c-.3 0-.5-.2-.5-.3 0-.4.7-1.6 1-1.6 0 0 .2-.1.2-.3.1-.2.3-.3.4-.2.2.1.2.2 0 .6-.3.6-.4.9-.2.9l.7-1.3c.4-1 .6-1.3.8-1.2.2 0 .3 0 .4-.3.1-.2.3-.2.4-.1.2 0 0 .4-.5 1.7a26 26 0 0 0-.8 1.7l.3.1c.2 0 .2 0 .1.3l-.2.6c0 .3-.1.3-.6 0l-.6-.2.4.8c.1 0 .2.1.1.2 0 .5 0 .6.3.3.1-.3.2-.4.3-.2v.5c-.2.1-.2.3-.2.4l.2-.3c.3-.5.6-.6.6-.3l-.3.7c-.2.4-.3.4-.5.3 0-.2-.2-.2-.2 0l.6.3.3-.6c.1-.3.3-.5.4-.5l-.2.6-.2.7c.2 0 3-6.1 3-6.3l-4-1.8-.7-.3-.5 1Zm1.7 1.3v.2c.2 0 .3-.1.3-.2l-.1-.2-.2.2ZM20 13c0 .1 0 .2.1.1l.2-.2h-.2c-.2 0-.1 0-.1.1Zm-3.4.7c-.2.3-.2.5 0 .4l.2-.7-.2.3Zm-.1 1.4.6 1c.2.5.4.8 1.3 1.3a43.4 43.4 0 0 1 2.3 1.4c.2-.2-1.4-1.8-1.9-2a.9.9 0 0 1-.5-.7c-.1-.4-.3-.6-1-1l-1.1-.5s0 .3.3.5Z" clip-rule="evenodd"/>
</svg>
