<svg xmlns="http://www.w3.org/2000/svg" fill="none" viewBox="0 0 457 99">
  <defs>
    <style>
    path{color:#000;fill:currentColor;}
    @media(prefers-color-scheme:dark) {path{color:#fff}}
    </style>
  </defs>
  <g clip-path="url(#a)">
    <path fill-rule="evenodd" d="M430.531 2.22945c-1.329 1.24208-2.417 2.64292-2.417 3.11297 0 .47084-1.313.85685-2.919.8584-3.648.00312-7.781 2.45147-8.417 4.98468-.431 1.7168-.704 1.839-2.543 1.1393-1.132-.4304-3.114-.5961-4.402-.3681-1.437.2545-2.927-.0265-3.853-.7261-2.031-1.53469-4.263-1.42962-6.923.3238-2.71 1.7868-6.335 6.1099-7.064 8.4244-.496 1.5752-.22 1.762 3.304 2.2289 3.801.5043 3.828.5269 2.339 2.0157-1.201 1.2008-1.458 2.3876-1.273 5.8625.156 2.9378.612 4.5332 1.399 4.8998.642.2988 1.904.9183 2.803 1.3775 3.832 1.9526 7.358-2.3472 7.188-8.7638l-.103-3.8912-.472 4.3963c-.51 4.7519-2.395 7.6664-4.958 7.6664-1.236 0-1.416-.3331-.946-1.751.319-.9635.74-3.3597.936-5.3255.274-2.7527.029-3.9006-1.065-4.994-1.375-1.3752-1.29-1.4047 2.657-.9378 2.402.2848 4.077.1782 4.077-.2584 0-2.2553 1.643-.0225 3.847 5.2298 1.379 3.2842 3.468 7.7723 4.643 9.974 1.893 3.5472 2.325 3.92 3.787 3.267 2.346-1.0467 8.109-14.3453 7.524-17.361-.384-1.9814-.092-2.4219 2.529-3.8103 2.896-1.5339 2.963-1.6677 2.948-5.9255-.013-3.95037.187-4.47179 2.141-5.59324 1.186-.68019 2.561-2.12694 3.056-3.2157.751-1.64832.667-2.23823-.509-3.53789-1.976-2.182975-4.487-1.943273-7.314.69808Zm-69.936 7.96925c.288 4.0196.747 5.7535 1.661 6.2648.695.3891 1.263 1.1915 1.263 1.783 0 .9595 2.901 2.5036 3.449 1.8358.119-.1455.793-1.9915 1.497-4.1005 1.459-4.3714 1.632-6.67112.502-6.67112-.428 0-.778.84672-.778 1.88182 0 2.3448-.736 4.3441-1.6 4.3441-.361 0-1.263-1.9261-2.005-4.2803-.742-2.35419-1.635-4.28035-1.985-4.28035-.35 0-.636-.52531-.636-1.16736 0-.64205-.397-1.16736-.883-1.16736-.613 0-.761 1.6989-.485 5.55747Zm-39.49 6.0547c-11.922 5.5924-15.076 21.9667-6.067 31.4892 4.085 4.3185 8.037 5.8906 14.861 5.9108 5.952.0179 8.394-.8024 13.276-4.4586 5.38-4.0305 7.838-14.0675 5.42-22.1363-1.133-3.7823-5.927-8.8362-10.238-10.7934-4.397-1.9962-13.01-2.0025-17.252-.0117Zm3.913 3.5651c-3.533 1.2584-7.397 5.0563-8.905 8.7521-.623 1.5254-.901 4.3356-.702 7.0883.4 5.5325 3.498 9.9934 8.68 12.5024 4.132 2.0001 6.947 2.0211 11.217.0825 4.122-1.8709 4.238-3.134.29-3.134-2.873 0-3.095-.1828-4.669-3.8406-.909-2.1129-1.652-4.2725-1.652-4.7994 0-.5269-.239-.7199-.531-.428-.291.2918-.441 2.4514-.332 4.7994l.197 4.2686h-7.895V22.3642l8.109.3003c9.6.3549 11.347 1.3192 11.347 6.2602 0 2.2437-.512 3.5037-1.975 4.8602l-1.975 1.8304 2.137 4.3581c1.176 2.397 2.371 4.3582 2.658 4.3582.814 0 3.825-7.475 3.82-9.4829-.014-5.9209-4.169-12.2277-9.716-14.7477-3.724-1.6919-5.969-1.7541-10.103-.2825Zm-126.885 1.7456c-16.092 5.7372-24.765 20.0795-22.387 37.0226 2.033 14.487 12.793 25.324 27.622 27.819 6.227 1.0476 13.766.0358 21.624-2.9028 9.241-3.4562 8.561-1.9184 8.561-19.344V49.0011h-28.017v14.0083h11.674v2.9574c0 4.0717-1.062 4.8251-6.796 4.8251-11.251 0-18.053-6.6976-18.091-17.814-.028-8.1832 3.708-13.7095 11.461-16.9486 5.79-2.4195 18.224.2669 21.936 4.7395 2.166 2.6095 2.904 1.3394 3.694-6.3598.904-8.8081.796-8.998-6.757-11.9888-6.001-2.3768-18.988-2.8297-24.524-.8561Zm65.227.0475c-23.024 8.2034-29.386 39.2172-11.512 56.1214 9.92 9.3825 23.981 11.6091 36.182 5.7287 4.847-2.3356 11.695-8.914 14.016-13.4637 5.039-9.8766 5.046-23.5418.018-33.3975-2.54-4.9807-8.804-10.7654-14.598-13.483-4.561-2.1394-6.271-2.5052-12.666-2.7106-5.684-.1821-8.33.0965-11.44 1.2047Zm-261.19582.0148c-1.223397.2342-1.308221 2.6079-1.11989 31.5188l.20311 31.2659 20.0678.2078 20.0685.2078-.2233-7.6011-.2226-7.6011-11.6737-.1689-11.6736-.1689-.3891-23.9566-.3891-23.9567h-6.6618c-3.66396 0-7.25788.1137-7.98632.253ZM48.3311 53.0868v31.7134h15.5648V21.3734H48.3311v31.7134ZM78.186 22.1532c-.1649.4289-.2085 14.6123-.0965 31.5189l.2039 30.739h39.6906V69.6245l-10.896-.165c-5.992-.0903-11.3277-.1782-11.8569-.1946-.737-.0225-1.0094-5.615-1.1674-23.9605l-.2054-23.931h-7.6859c-4.4158 0-7.8136.3316-7.9864.7798Zm36.598-.2505c-.179.291 1.214 2.7425 3.096 5.4476 1.882 2.7052 6.966 10.1522 11.297 16.5486l7.874 11.6293v29.272h15.565V54.5204l12.037-16.1042c6.621-8.858 11.88-16.3618 11.685-16.6762-.406-.6568-15.493-.3455-16.607.3432-.406.2506-3.634 4.4788-7.174 9.3957l-6.435 8.9389-6.3-9.4307-6.301-9.4308-9.205-.0918c-5.063-.0498-9.353.1471-9.532.4382Zm248.152.242c-4.958 2.1542-2.531 6.6221 3.596 6.6221 4.196 0 5.548-.9674 5.548-3.9706 0-1.6593-.517-2.2834-2.451-2.9574-3.07-1.07-3.581-1.0467-6.693.3059Zm2.731 2.1705c1.421.8179 1.571 1.2055.779 2.0195-.797.818-.615.9581.965.7472 1.34-.1798 1.945-.7456 1.945-1.8172 0-1.2211-.586-1.6001-2.724-1.7589-2.586-.193-2.636-.1525-.965.8094Zm27.815.5603c-.272.8561-1.084 1.562-1.803 1.5682-1.123.0101-1.144.1167-.149.7463 1.34.8468.475 1.9978-1.939 2.5784-1.407.3385-1.388.3828.194.4646 1.418.0731 1.768.572 1.843 2.6195.075 2.0919.198 1.8935.711-1.1463.34-2.0211 1.147-4.7356 1.794-6.0314.646-1.2958.876-2.3557.509-2.3557-.366 0-.889.7004-1.16 1.5564Zm-64.984 4.6695c0 1.765.357 2.3347 1.462 2.3347 2.365 0 3.501-1.93 2.012-3.4196-2.003-2.0032-3.474-1.544-3.474 1.0849Zm37.65 11.8682c.488 16.0396.408 15.8225 6.5 17.7035 5.678 1.7541 7.215 1.916 7.215.7603 0-.4389-1.058-1.0094-2.352-1.2678-1.292-.2583-2.519-.7424-2.724-1.0747-.206-.3331-1.129-.4078-2.051-.1665-1.057.2762-1.492.1385-1.176-.3736.276-.4467-.194-.9946-1.045-1.2172-.962-.2513-1.572-1.0957-1.611-2.2281-.035-1.0031-.166-2.8748-.292-4.1589-.126-1.2841-.313-6.0999-.416-10.7009-.148-6.5971-.42-8.3661-1.287-8.3661-.91 0-1.04 1.8997-.761 11.09Zm69.567-8.9498c-3.179 3.6064-11.591 23.3605-11.341 26.6338.094 1.2366.485 2.0546.868 1.8172.384-.2366 2.353.3448 4.378 1.2934 2.764 1.2943 3.916 2.3737 4.625 4.3348.54 1.4935 1.677 2.843 2.659 3.155 2.135.6771 7.623 6.577 7.022 7.549-.243.3938-.743.2405-1.111-.3401-.369-.5806-.686-.7059-.706-.2778-.02.428-.526.1315-1.125-.6584-.599-.7907-3.39-2.7815-6.202-4.4243-5.029-2.9394-5.112-2.9589-5.112-1.1651 0 1.2266 1.208 2.8204 3.697 4.8757 4.991 4.1224 5.53 4.38 6.861 3.2749.949-.7876 1.065-.7316.661.3222-.322.8397-.084 1.2771.696 1.2771.652 0 1.302.263 1.445.5837.526 1.1844 10.148 7.1987 11.517 7.1987 2.058 0 2.624-2.2896 1.039-4.1986-.749-.9012-4.691-4.8547-8.76-8.7864-6.904-6.668-8.658-9.3653-4.721-7.2586 2.807 1.5027 3.429.5502 12.404-18.9752 3.615-7.8633 3.611-7.8804-2.497-10.8564-4.284-2.0865-14.569-6.7365-14.9-6.7365-.109 0-.737.6125-1.397 1.3619Zm.001 1.9456c-1.232 1.8981-6.897 14.3057-9.21 20.1697-1.645 4.1722-1.59 4.2578 4.331 6.7715 2.141.9082 3.291 1.1861 2.557.6164-1.016-.7876-1.118-1.2514-.428-1.9417.645-.6452.656-.9067.037-.9067-.478 0-.999.3907-1.158.8678-.19.5728-1.24.3587-3.082-.6289-2.532-1.3572-2.693-1.6335-1.721-2.9619.589-.8063 1.077-1.1363 1.083-.7332.007.4024.352.2071.767-.435.415-.642.759-.7782.766-.3027.007.5019.83.7089 1.958.4934 2.247-.4296 2.502-1.3581.658-2.3908-1.279-.7152-1.198-1.2086.734-4.4297 2.887-4.8127 7.174-6.4563 4.784-1.8336-.667 1.2888-1.078 2.7449-.915 3.2367.165.4911 1.463-1.6335 2.887-4.7223 1.423-3.0889 2.984-5.6159 3.468-5.6159.483 0 1.451-.6677 2.15-1.4848 1.216-1.4196 1.068-1.5729-3.381-3.5021-2.558-1.109-4.763-2.0172-4.9-2.0172-.136 0-.759.7875-1.385 1.751Zm-167.531 2.4414c-6.319 3.018-9.728 8.7692-9.728 16.4084 0 11.883 8.169 19.2398 19.088 17.1914 4.394-.8249 9.2-5.7286 10.896-11.1203 2.507-7.9723.08-16.0614-6.274-20.9083-3.274-2.4966-10.375-3.2951-13.982-1.5712Zm124.129.8202c0 .6172.318 1.3176.706 1.5573.388.2405.522-.2646.298-1.1215-.475-1.8171-1.004-2.0467-1.004-.4358Zm54.817 1.369c-.299.9416-1.705 4.1807-3.125 7.1987-1.628 3.4593-2.309 5.7598-1.844 6.2259.895.8974.926 2.0414.088 3.3613-.502.7891-1.32.751-4.075-.1915l-3.446-1.1782 2.472 2.2693c1.82 1.6709 2.371 2.7488 2.087 4.0827-.337 1.5806-.275 1.6382.484.4506.969-1.5153 1.489-1.6374 2.973-.6958.806.5106.822 1.0608.081 2.6873-.513 1.1254-1.248 1.8499-1.634 1.6118-.395-.2444-.312-.9036.188-1.5059.489-.59.768-1.4266.621-1.8593-.148-.4327-.848.2273-1.557 1.4662-1.279 2.2344-1.27 2.2608 1.003 3.2025 2.002.8288 2.432.7635 3.394-.5191 1.222-1.6296 11.48-23.7613 11.124-24.0002-1.311-.8802-7.599-4.3185-7.898-4.3185-.216 0-.637.7705-.936 1.7122Zm-50.076.1478c-.572.6895-1.523 1.253-2.112 1.253-.59 0-1.072.5253-1.072 1.1674 0 .642.369 1.1673.819 1.1673.451 0 2.109.8755 3.683 1.9456 1.575 1.0701 3.395 1.9176 4.045 1.8842 1.04-.0537 1.042-.1121.014-.4864-.642-.2335-2.324-1.1215-3.738-1.9729-2.422-1.4592-2.495-1.6289-1.281-2.9705.708-.7822 1.151-1.832.984-2.3317-.204-.6109-.643-.498-1.342.344Zm17.72 4.4119-1.837 1.6032 2.14-1.3036c1.177-.7168 2.14-1.4374 2.14-1.6024 0-.6078-.65-.2607-2.443 1.3028Zm-3.935 1.9222c-.226.2257-1.947.7129-3.826 1.0818-2.947.579-3.082.6825-.986.7557 2.314.0817 2.454.2716 2.949 4.0025.614 4.6266.316 5.3278-2.073 4.871-1.941-.3712-9.171 4.0002-9.779 5.9123-.227.7152.021.8934.73.5261.591-.3051.443-.0389-.329.5915-1.055.8615-1.151 1.2475-.389 1.5526.624.2498.459.4296-.431.4677-.97.0412-1.294.4552-.985 1.2599.316.8242.052 1.1285-.844.9729-1.956-.3386-3.023 4.8951-1.819 8.9171 1.098 3.6632 7.047 9.9241 9.429 9.9241 1.496 0 1.591.4031 1.425 6.0314l-.178 6.0314 7.91.2218c7.528.2109 8.858-.1284 7.159-1.8273-.412-.4125-.985-2.7519-1.273-5.1987-.46-3.9192-.348-4.513.945-4.9932 6.491-2.4126 11.742-9.6525 10.398-14.3391-.372-1.2974-.509-2.7947-.304-3.3278.584-1.523-1.902-6.724-3.214-6.724-.65 0-1.391-.5456-1.646-1.2117-.256-.667-.964-1.0211-1.573-.7876-.626.2405-.897.0833-.622-.3603.588-.9518-4.251-3.0881-6.995-3.0881-1.821 0-1.97-.2701-1.97-3.5535 0-1.9541-.386-4.2748-.859-5.1574-.659-1.2319-.614-1.7588.195-2.2717.579-.3665.674-.6724.21-.6794-.464-.0062-1.029.1736-1.255.4Zm29.725 8.9732c0 .4529.351.6078.779.3432.428-.2646.778-.6351.778-.8242 0-.1891-.35-.3432-.778-.3432-.428 0-.779.3712-.779.8242Zm-9.354 2.6966c-.542.6522-.834 1.337-.65 1.5215.185.1836.763-.3495 1.285-1.1861 1.13-1.8094.753-2.0079-.635-.3354Zm-49.611.9588c-.528.1759-.959 1.3347-.959 2.5744 0 1.8265.407 2.3449 2.14 2.7285 1.177.26 4.206.9736 6.731 1.5845 2.525.6117 4.666 1.0188 4.759.9044 1.091-1.3565 1.936-4.0057 1.423-4.4641-.967-.8654-12.977-3.7005-14.094-3.3277Zm62.078 5.6376c-.497.9292-.729 1.8646-.515 2.0787.214.214.796-.3713 1.294-1.3005.497-.9292.729-1.8647.515-2.0787-.214-.214-.796.3713-1.294 1.3005Zm-27.604 21.9488c-.843.4895-3.732.8288-6.42.7549-2.83-.0779-4.888.193-4.888.6436 0 1.3479 10.607.9556 12.008-.4444 1.971-1.9721 1.698-2.3441-.7-.9541Z" clip-rule="evenodd"/>
  </g>
  <defs>
    <clipPath id="a">
      <path fill="#fff" d="M.967773.0541992h456v98.643h-456z"/>
    </clipPath>
  </defs>
</svg>
