<svg xmlns="http://www.w3.org/2000/svg" fill="none" viewBox="0 0 24 24">
  <defs>
    <style>
    path{color:#000;fill:currentColor;}
    @media(prefers-color-scheme:dark) {path{color:#fff}}
    </style>
  </defs>
  <path fill-rule="evenodd" d="M17.6117.29719c-.28.170739-.5535.450523-.6079.621745-.0748.235655-.3025.335355-.9383.410575-.9729.11533-1.5505.48097-1.891 1.19743-.1902.4001-.3101.48531-.5638.40075-.1771-.05912-.6948-.09407-1.1504-.07796-.5645.02029-.8912-.04639-1.0263-.20924-.4341-.523-1.6304-.1928-2.43771.67297-.42491.45568-1.1019 1.4917-1.10303 1.68821-.00032.0567.18153.149.4043.20489.39366.0989.39801.11501.15688.58132-.21745.42056-.33423.47951-.94888.47951-1.26991 0-1.45096.99061-.2007 1.09691.57358.04881.58792.06637.5942.72484.00628.65315.63495 2.40156.85417 2.37566.05928-.0069.37933.1658.71098.3837.66909.4399 1.80899.7467 2.29839.6188.2928-.0766.3179.0008.3179.9826 0 1.0331-.0125 1.0658-.4078 1.0658-.6129 0-1.542.438-2.12376 1.0011l-.51834.5016-1.46706-.4404c-.80698-.2421-1.69723-.4418-1.97847-.4438-.28123-.0021-1.06614-.148-1.74426-.3245-.98368-.2561-1.25203-.3916-1.32645-.6699-.05138-.1919-.13321-1.3637-.18169-2.604-.04864-1.24022-.11887-2.54895-.15624-2.9083-.06411-.61804-.03979-.66153.44843-.80537.44424-.13095.52284-.2342.56521-.74239.04558-.54668.00692-.6058-.52349-.79748-.64253-.23243-.67216-.3666-.32924-1.49686.30733-1.01299.31506-1.867.01708-1.867-.24548 0-.4159.47871-.41928 1.17729-.00338.691-.26174.38158-.64623-.77364C.661852.437486 0 .0960086 0 1.65714c0 1.13138.384966 2.36794.883006 2.8357.223084.20956.405584.42636.405584.48161 0 .05541-.25772.19394-.572617.30781-.529288.19136-.568913.25144-.52349.79233.042363.504.120967.60579.566014.73256.622063.17734.642843.288.750603 3.99945.09713 3.3425.08005 3.3106 2.03452 3.7951.84161.2086 1.60269.4698 1.69128.5806.08859.1109.65042.2905 1.24832.399 1.33466.2424 1.94158.4631 1.81885.6616-.05106.0829-.15882.4998-.23936.9265-.31635 1.6759.40752 3.062 2.00759 3.8449l.8827.4319v2.2172h3.5003l-.1324-.6846c-.2709-1.4009-.2269-1.5268.6661-1.911.967-.416 1.8618-1.3962 2.1086-2.3099.0969-.3584.2037-.7473.2376-.8642.0407-.1413.3754.0343.9983.5235.5153.4049.9891.7361 1.0531.7361.0638 0 .8566.4968 1.7617 1.104.9052.6071 1.8011 1.1533 1.9911 1.2135.3681.1166.8626-.2369.8626-.6169 0-.115-.9866-1.1649-2.1924-2.333-2.0395-1.9755-2.4973-2.5467-1.6977-2.1189.5523.2956.8105.1981 1.2282-.4636C21.9218 15.0139 24 10.4814 24 10.133c0-.16268-.2357-.43957-.5235-.61546-.7367-.45004-4.1298-1.96156-4.4034-1.96156-.1247 0-.4417.34438-.7042.7651-.6102.9782-2.4514 5.26312-2.4809 5.77322-.0264.4615.009.4549-.6343.1174-.2835-.1488-.8779-.3532-1.3208-.4544l-.8054-.1839-.0916-.955c-.0505-.5253-.1229-1.0372-.1611-1.1375-.0689-.1814 1.2269-1.2111 1.8847-1.49786.7854-.34212 2.0476-3.12644 1.963-4.32982-.0494-.70148-.0312-.73531.4649-.86594.284-.0749.6283-.29589.7651-.49127.2828-.40381.3273-1.28569.0876-1.73348-.1361-.25449-.0627-.35662.4739-.65815.8236-.46292 1.1377-1.151029.7306-1.600908-.3642-.4023627-.9795-.404778-1.6329-.006282ZM12.03 5.08318c-.0608.06072-.1109.66008-.1112 1.33192-.0009 1.93804-.7284 2.81347-1.93222 2.32542-.76607-.31055-.96645-.62787-.96645-1.52988 0-1.34142.65622-2.12795 1.26637-1.51764.3043.30427.3125 1.64263.0137 2.20108-.2131.39801.008.72483.3911.57793.4921-.18894.7986-.91635.7986-1.8952 0-.52445-.0334-.98722-.0743-1.02813-.0409-.04091-.5752-.09519-1.1873-.12081l-1.11281-.04638-.37611.67425c-.48241.86432-.61739 2.03243-.33181 2.86937.22164.64977.38464.72515 1.01477.46856.31812-.12934.31828-.12563.019.33117-.29637.45216-.29637.46696.00048.69386 1.30438.9981 2.98938.8674 4.46418-.3463l.4565-.37542-.763-1.51345c-.4198-.83243-.9198-1.89536-1.1111-2.36215-.1915-.46679-.3977-.79893-.4584-.7382ZM1.31952 5.7737c.10695.17154.25256.27592.32343.23211.07088-.04381.12886.03769.12886.18104 0 .14336-.07248.21584-.16107.16108-.08859-.05477-.16108-.02271-.16108.07103 0 .09375.2537.17058.56376.17058.46873 0 .56376-.05815.56376-.3447 0-.43619-.43409-.77106-1.008-.77766-.39946-.00467-.42475.02641-.24966.30652Zm5.55737.91877c-.20553.20553.08053.38029.62255.38029.38528 0 .55425-.07361.55425-.24161 0-.16639-.16703-.24161-.53686-.24161-.29541 0-.58325.04639-.63994.10293ZM18.4613 8.99179c-.6936 1.32001-2.1928 4.79471-2.1928 5.08221 0 .114.3577.3613.7949.5494.9421.4053.9935.4117.878.1105-.0493-.1284-.1978-.1896-.3335-.1375-.2097.0805-.2061.0194.0253-.4279.1484-.2868.2379-.5534.199-.5924-.0389-.039-.1618.149-.2731.4177-.196.4734-.5352.6374-.7154.3458-.1209-.1954.2246-1.146.4165-1.146.085 0 .11.0725.0552.161-.1248.202.0155.1891.722-.0658l.561-.2027-.4402-.1103c-.242-.0609-.4402-.1997-.4406-.3088-.0006-.3289.7118-1.5674.9017-1.5674.0975 0 .2426-.1432.3225-.3181.0979-.2142.2162-.2737.3619-.1823.179.1119.1719.2219-.0402.6322-.2876.556-.3261.8347-.1152.8347.078 0 .3813-.5806.6742-1.2899.4153-1.00577.5914-1.27139.799-1.20551.1656.05251.3221-.03704.4131-.23613.1004-.21971.2162-.27721.3673-.18266.1767.11082.0726.46116-.5235 1.7617-.4093.8928-.7442 1.6622-.7442 1.7101 0 .0477.1165.0866.2589.0866.1833 0 .225.0822.1428.2819-.0639.1551-.1525.4087-.1971.5638-.0967.3363-.163.3402-.6878.0403-.2215-.1267-.4576-.2328-.5248-.236-.1337-.0061.2043.661.4125.8145.0711.0524.117.1611.1017.2416-.087.4622.0407.5957.235.2454.1345-.2426.2538-.318.3239-.2048.061.0988.0351.3212-.0577.4945-.0926.1732-.1655.374-.162.4462.0035.0723.1145-.068.2468-.3115.2392-.4409.5521-.5961.5521-.2738 0 .0929-.1132.388-.2516.6555-.205.3966-.2946.4512-.4832.2945-.138-.1144-.2316-.126-.2316-.0285 0 .138.3539.359.5747.359.0359 0 .1712-.2537.3009-.5638.1295-.31.3131-.5637.408-.5637.0968 0 .028.2833-.1561.6443-.1807.3543-.2917.6443-.2463.6443.1843 0 3.0736-6.0856 2.9485-6.2106-.0701-.07018-3.3249-1.60232-4.0182-1.89145l-.5913-.2466-.571 1.08644Zm1.7535 1.30241c-.0548.0886-.0227.1611.071.1611.0937 0 .1706-.0725.1706-.1611s-.0319-.161-.0711-.161c-.0391 0-.1158.0724-.1705.161Zm-.2416 2.7478c0 .0937.0724.1258.161.071.0886-.0547.1611-.1314.1611-.1705 0-.0392-.0725-.0711-.1611-.0711s-.161.0769-.161.1706Zm-3.377.6242c-.204.3812-.2135.5418-.0251.4254.1422-.088.3639-.737.2518-.737-.033 0-.1348.1402-.2267.3116Zm-.1109 1.4603c.2235.2656.4985.7373.6109 1.0481.1596.4413.4494.7105 1.3266 1.2317.6174.3666 1.3749.8381 1.6836 1.0476.3087.2094.5971.3449.641.3009.1357-.1356-1.4712-1.7646-1.944-1.9707-.3028-.1321-.4785-.355-.5462-.6933-.0816-.409-.2685-.5839-1.0395-.973-.5171-.261-.9848-.4746-1.0394-.4746-.0548 0 .0834.2175.307.4833Z" clip-rule="evenodd"/>
</svg>
